<?xml version="1.0" standalone="no"?>
<!DOCTYPE svg PUBLIC "-//W3C//DTD SVG 20010904//EN"
 "http://www.w3.org/TR/2001/REC-SVG-20010904/DTD/svg10.dtd">
<svg version="1.0" xmlns="http://www.w3.org/2000/svg"
 width="512.000000pt" height="512.000000pt" viewBox="0 0 512.000000 512.000000"
 preserveAspectRatio="xMidYMid meet">
<metadata>
Created by potrace 1.14, written by Peter Selinger 2001-2017
</metadata>
<g transform="translate(0.000000,512.000000) scale(0.100000,-0.100000)"
fill="#000000" stroke="none">
<path d="M2660 4473 c-19 -1 -62 -8 -95 -15 -33 -6 -112 -12 -175 -13 -304 -6
-589 -174 -782 -459 -145 -217 -234 -457 -287 -776 -54 -323 -66 -591 -66
-1493 l0 -779 -25 -20 c-252 -200 -444 -514 -524 -860 l-13 -58 613 0 613 0 5
53 c3 28 10 203 16 387 12 371 15 344 -54 494 -20 43 -36 85 -36 92 0 23 97
303 114 329 9 14 23 25 31 25 16 0 117 -67 315 -211 80 -58 173 -124 208 -148
l63 -42 65 58 c194 173 485 360 549 351 17 -3 30 -36 82 -203 34 -110 62 -214
62 -230 1 -21 -14 -52 -50 -100 l-50 -70 6 -125 c6 -120 25 -606 25 -642 0
-17 35 -18 601 -18 l601 0 -7 27 c-10 42 -114 300 -148 368 -75 151 -199 332
-317 465 l-66 75 8 180 c13 261 12 1099 -1 1315 -28 451 -94 838 -193 1135
-150 452 -482 803 -838 888 -69 16 -192 26 -250 20z m732 -1176 c9 -19 24 -73
34 -120 10 -48 22 -87 26 -87 4 0 13 9 20 20 10 15 24 20 59 20 53 0 59 -7 59
-76 l0 -45 -36 35 c-20 20 -42 32 -50 29 -8 -3 -26 -25 -40 -49 -35 -59 -49
-58 -45 1 1 11 -12 70 -29 130 -34 124 -41 175 -22 175 5 0 15 -15 24 -33z
m-1033 -300 c65 -33 72 -50 36 -87 -17 -17 -59 -46 -95 -63 -58 -29 -74 -32
-150 -31 -65 0 -96 5 -130 21 -52 24 -92 63 -73 70 7 3 28 15 47 28 67 45 74
47 68 19 -21 -110 145 -158 197 -57 18 36 13 91 -11 115 l-21 21 44 -7 c24 -3
64 -17 88 -29z m490 -3 c-34 -36 -34 -112 0 -148 72 -76 202 -10 205 105 0 21
2 39 4 39 2 0 25 -7 53 -16 33 -11 49 -22 49 -34 0 -9 -24 -42 -52 -73 -68
-73 -114 -87 -215 -68 -37 8 -86 24 -109 37 -40 23 -114 97 -114 114 0 4 15
14 33 20 96 37 134 49 151 50 18 0 17 -2 -5 -26z m711 -22 c0 -7 -4 -10 -10
-7 -5 3 -10 16 -10 28 0 18 2 19 10 7 5 -8 10 -21 10 -28z"/>
<path d="M2521 769 c-33 -72 -61 -138 -61 -147 0 -34 42 -168 65 -210 27 -47
26 -61 -6 -172 -11 -36 -28 -104 -38 -152 l-19 -88 129 0 c71 0 129 2 129 5 0
14 -43 246 -56 302 -16 68 -13 79 27 139 16 23 35 59 44 80 15 39 15 41 -24
130 -50 116 -108 231 -119 238 -5 3 -37 -53 -71 -125z"/>
</g>
</svg>
